<mxfile host="app.diagrams.net" agent="Mozilla/5.0 (Windows NT 10.0; Win64; x64) AppleWebKit/537.36 (KHTML, like Gecko) Chrome/132.0.0.0 Safari/537.36" version="26.0.9" pages="2">
  <diagram name="Basic Design" id="5G_0qOwVpR6N4nbpUTHd">
    <mxGraphModel dx="857" dy="455" grid="1" gridSize="10" guides="1" tooltips="1" connect="1" arrows="1" fold="1" page="1" pageScale="1" pageWidth="827" pageHeight="1169" math="0" shadow="0">
      <root>
        <mxCell id="oNuZaTdP7KxwaS3hmppc-0" />
        <mxCell id="oNuZaTdP7KxwaS3hmppc-1" parent="oNuZaTdP7KxwaS3hmppc-0" />
        <mxCell id="oNuZaTdP7KxwaS3hmppc-39" value="AWS Cloud" style="sketch=0;outlineConnect=0;gradientColor=none;html=1;whiteSpace=wrap;fontSize=12;fontStyle=0;shape=mxgraph.aws4.group;grIcon=mxgraph.aws4.group_aws_cloud;strokeColor=#AAB7B8;fillColor=none;verticalAlign=top;align=left;spacingLeft=30;fontColor=#AAB7B8;dashed=0;" parent="oNuZaTdP7KxwaS3hmppc-1" vertex="1">
          <mxGeometry x="70" y="360" width="620" height="700" as="geometry" />
        </mxCell>
        <mxCell id="NRptelGG9SxiEdhYpK35-46" value="Production VPC" style="sketch=0;outlineConnect=0;gradientColor=none;html=1;whiteSpace=wrap;fontSize=12;fontStyle=0;shape=mxgraph.aws4.group;grIcon=mxgraph.aws4.group_vpc;strokeColor=#879196;fillColor=none;verticalAlign=top;align=left;spacingLeft=30;fontColor=#879196;dashed=0;" parent="oNuZaTdP7KxwaS3hmppc-1" vertex="1">
          <mxGeometry x="100" y="520" width="550" height="360" as="geometry" />
        </mxCell>
        <mxCell id="NRptelGG9SxiEdhYpK35-32" value="Availability Zone b" style="fillColor=none;strokeColor=#147EBA;dashed=1;verticalAlign=top;fontStyle=0;fontColor=#147EBA;whiteSpace=wrap;html=1;" parent="oNuZaTdP7KxwaS3hmppc-1" vertex="1">
          <mxGeometry x="410" y="480" width="220" height="470" as="geometry" />
        </mxCell>
        <mxCell id="NRptelGG9SxiEdhYpK35-16" value="Availability Zone a" style="fillColor=none;strokeColor=#147EBA;dashed=1;verticalAlign=top;fontStyle=0;fontColor=#147EBA;whiteSpace=wrap;html=1;" parent="oNuZaTdP7KxwaS3hmppc-1" vertex="1">
          <mxGeometry x="110" y="480" width="220" height="470" as="geometry" />
        </mxCell>
        <mxCell id="oNuZaTdP7KxwaS3hmppc-3" value="&lt;font style=&quot;font-size: 10px;&quot;&gt;Mobile Client&lt;/font&gt;" style="sketch=0;outlineConnect=0;fontColor=#232F3E;gradientColor=none;fillColor=#232F3D;strokeColor=none;dashed=0;verticalLabelPosition=bottom;verticalAlign=top;align=center;html=1;fontSize=12;fontStyle=0;aspect=fixed;pointerEvents=1;shape=mxgraph.aws4.mobile_client;" parent="oNuZaTdP7KxwaS3hmppc-1" vertex="1">
          <mxGeometry x="365.28999999999996" y="230" width="26.28" height="50" as="geometry" />
        </mxCell>
        <mxCell id="oNuZaTdP7KxwaS3hmppc-5" value="&lt;font style=&quot;font-size: 10px;&quot;&gt;User&lt;/font&gt;" style="sketch=0;outlineConnect=0;fontColor=#232F3E;gradientColor=none;fillColor=#232F3D;strokeColor=none;dashed=0;verticalLabelPosition=bottom;verticalAlign=top;align=center;html=1;fontSize=12;fontStyle=0;aspect=fixed;pointerEvents=1;shape=mxgraph.aws4.user;" parent="oNuZaTdP7KxwaS3hmppc-1" vertex="1">
          <mxGeometry x="505" y="234" width="40" height="40" as="geometry" />
        </mxCell>
        <mxCell id="oNuZaTdP7KxwaS3hmppc-6" value="&lt;font style=&quot;font-size: 10px;&quot;&gt;Web Client&lt;/font&gt;" style="sketch=0;outlineConnect=0;fontColor=#232F3E;gradientColor=none;fillColor=#232F3D;strokeColor=none;dashed=0;verticalLabelPosition=bottom;verticalAlign=top;align=center;html=1;fontSize=12;fontStyle=0;aspect=fixed;pointerEvents=1;shape=mxgraph.aws4.client;" parent="oNuZaTdP7KxwaS3hmppc-1" vertex="1">
          <mxGeometry x="191.47" y="240" width="40" height="38.98" as="geometry" />
        </mxCell>
        <mxCell id="NRptelGG9SxiEdhYpK35-13" value="Public subnet" style="points=[[0,0],[0.25,0],[0.5,0],[0.75,0],[1,0],[1,0.25],[1,0.5],[1,0.75],[1,1],[0.75,1],[0.5,1],[0.25,1],[0,1],[0,0.75],[0,0.5],[0,0.25]];outlineConnect=0;gradientColor=none;html=1;whiteSpace=wrap;fontSize=12;fontStyle=0;container=1;pointerEvents=0;collapsible=0;recursiveResize=0;shape=mxgraph.aws4.group;grIcon=mxgraph.aws4.group_security_group;grStroke=0;strokeColor=#7AA116;fillColor=#F2F6E8;verticalAlign=top;align=left;spacingLeft=30;fontColor=#248814;dashed=0;" parent="oNuZaTdP7KxwaS3hmppc-1" vertex="1">
          <mxGeometry x="122" y="570" width="488" height="110" as="geometry" />
        </mxCell>
        <mxCell id="NRptelGG9SxiEdhYpK35-11" value="Application LB" style="sketch=0;outlineConnect=0;fontColor=#232F3E;gradientColor=none;fillColor=#8C4FFF;strokeColor=none;dashed=0;verticalLabelPosition=bottom;verticalAlign=top;align=center;html=1;fontSize=10;fontStyle=0;aspect=fixed;pointerEvents=1;shape=mxgraph.aws4.application_load_balancer;" parent="NRptelGG9SxiEdhYpK35-13" vertex="1">
          <mxGeometry x="148" y="36" width="40" height="40" as="geometry" />
        </mxCell>
        <mxCell id="NRptelGG9SxiEdhYpK35-8" value="NAT GW" style="outlineConnect=0;dashed=0;verticalLabelPosition=bottom;verticalAlign=top;align=center;html=1;shape=mxgraph.aws3.vpc_nat_gateway;fillColor=#F58536;gradientColor=none;fontSize=10;" parent="NRptelGG9SxiEdhYpK35-13" vertex="1">
          <mxGeometry x="292" y="34" width="40" height="40" as="geometry" />
        </mxCell>
        <mxCell id="NRptelGG9SxiEdhYpK35-48" value="&lt;font style=&quot;font-size: 10px;&quot;&gt;Route 53&lt;/font&gt;" style="outlineConnect=0;dashed=0;verticalLabelPosition=bottom;verticalAlign=top;align=center;html=1;shape=mxgraph.aws3.route_53;fillColor=#F58536;gradientColor=none;fontSize=8;" parent="oNuZaTdP7KxwaS3hmppc-1" vertex="1">
          <mxGeometry x="343.09000000000003" y="370" width="50" height="50" as="geometry" />
        </mxCell>
        <mxCell id="NRptelGG9SxiEdhYpK35-52" value="&lt;font style=&quot;font-size: 10px;&quot;&gt;Amazon CloudFront&lt;/font&gt;" style="sketch=0;points=[[0,0,0],[0.25,0,0],[0.5,0,0],[0.75,0,0],[1,0,0],[0,1,0],[0.25,1,0],[0.5,1,0],[0.75,1,0],[1,1,0],[0,0.25,0],[0,0.5,0],[0,0.75,0],[1,0.25,0],[1,0.5,0],[1,0.75,0]];outlineConnect=0;fontColor=#232F3E;fillColor=#8C4FFF;strokeColor=#ffffff;dashed=0;verticalLabelPosition=bottom;verticalAlign=top;align=center;html=1;fontSize=8;fontStyle=0;aspect=fixed;shape=mxgraph.aws4.resourceIcon;resIcon=mxgraph.aws4.cloudfront;" parent="oNuZaTdP7KxwaS3hmppc-1" vertex="1">
          <mxGeometry x="385.15999999999997" y="499" width="40" height="40" as="geometry" />
        </mxCell>
        <mxCell id="NRptelGG9SxiEdhYpK35-54" value="Private subnet" style="points=[[0,0],[0.25,0],[0.5,0],[0.75,0],[1,0],[1,0.25],[1,0.5],[1,0.75],[1,1],[0.75,1],[0.5,1],[0.25,1],[0,1],[0,0.75],[0,0.5],[0,0.25]];outlineConnect=0;gradientColor=none;html=1;whiteSpace=wrap;fontSize=12;fontStyle=0;container=1;pointerEvents=0;collapsible=0;recursiveResize=0;shape=mxgraph.aws4.group;grIcon=mxgraph.aws4.group_security_group;grStroke=0;strokeColor=#00A4A6;fillColor=#E6F6F7;verticalAlign=top;align=left;spacingLeft=30;fontColor=#147EBA;dashed=0;" parent="oNuZaTdP7KxwaS3hmppc-1" vertex="1">
          <mxGeometry x="122.84" y="690" width="78" height="90" as="geometry" />
        </mxCell>
        <mxCell id="NRptelGG9SxiEdhYpK35-0" value="ECS" style="sketch=0;points=[[0,0,0],[0.25,0,0],[0.5,0,0],[0.75,0,0],[1,0,0],[0,1,0],[0.25,1,0],[0.5,1,0],[0.75,1,0],[1,1,0],[0,0.25,0],[0,0.5,0],[0,0.75,0],[1,0.25,0],[1,0.5,0],[1,0.75,0]];outlineConnect=0;fontColor=#232F3E;fillColor=#ED7100;strokeColor=#ffffff;dashed=0;verticalLabelPosition=bottom;verticalAlign=top;align=center;html=1;fontSize=10;fontStyle=0;aspect=fixed;shape=mxgraph.aws4.resourceIcon;resIcon=mxgraph.aws4.ecs;" parent="oNuZaTdP7KxwaS3hmppc-1" vertex="1">
          <mxGeometry x="142.59" y="725.75" width="40" height="40" as="geometry" />
        </mxCell>
        <mxCell id="NRptelGG9SxiEdhYpK35-55" value="Private subnet" style="points=[[0,0],[0.25,0],[0.5,0],[0.75,0],[1,0],[1,0.25],[1,0.5],[1,0.75],[1,1],[0.75,1],[0.5,1],[0.25,1],[0,1],[0,0.75],[0,0.5],[0,0.25]];outlineConnect=0;gradientColor=none;html=1;whiteSpace=wrap;fontSize=12;fontStyle=0;container=1;pointerEvents=0;collapsible=0;recursiveResize=0;shape=mxgraph.aws4.group;grIcon=mxgraph.aws4.group_security_group;grStroke=0;strokeColor=#00A4A6;fillColor=#E6F6F7;verticalAlign=top;align=left;spacingLeft=30;fontColor=#147EBA;dashed=0;" parent="oNuZaTdP7KxwaS3hmppc-1" vertex="1">
          <mxGeometry x="240" y="760" width="78" height="98.75" as="geometry" />
        </mxCell>
        <mxCell id="NRptelGG9SxiEdhYpK35-3" value="RDS" style="sketch=0;points=[[0,0,0],[0.25,0,0],[0.5,0,0],[0.75,0,0],[1,0,0],[0,1,0],[0.25,1,0],[0.5,1,0],[0.75,1,0],[1,1,0],[0,0.25,0],[0,0.5,0],[0,0.75,0],[1,0.25,0],[1,0.5,0],[1,0.75,0]];outlineConnect=0;fontColor=#232F3E;fillColor=#C925D1;strokeColor=#ffffff;dashed=0;verticalLabelPosition=bottom;verticalAlign=top;align=center;html=1;fontSize=10;fontStyle=0;aspect=fixed;shape=mxgraph.aws4.resourceIcon;resIcon=mxgraph.aws4.rds;" parent="oNuZaTdP7KxwaS3hmppc-1" vertex="1">
          <mxGeometry x="250" y="793.75" width="40" height="40" as="geometry" />
        </mxCell>
        <mxCell id="NRptelGG9SxiEdhYpK35-64" value="Private subnet" style="points=[[0,0],[0.25,0],[0.5,0],[0.75,0],[1,0],[1,0.25],[1,0.5],[1,0.75],[1,1],[0.75,1],[0.5,1],[0.25,1],[0,1],[0,0.75],[0,0.5],[0,0.25]];outlineConnect=0;gradientColor=none;html=1;whiteSpace=wrap;fontSize=12;fontStyle=0;container=1;pointerEvents=0;collapsible=0;recursiveResize=0;shape=mxgraph.aws4.group;grIcon=mxgraph.aws4.group_security_group;grStroke=0;strokeColor=#00A4A6;fillColor=#E6F6F7;verticalAlign=top;align=left;spacingLeft=30;fontColor=#147EBA;dashed=0;" parent="oNuZaTdP7KxwaS3hmppc-1" vertex="1">
          <mxGeometry x="541" y="760" width="78" height="100.75" as="geometry" />
        </mxCell>
        <mxCell id="NRptelGG9SxiEdhYpK35-66" value="RDS" style="sketch=0;points=[[0,0,0],[0.25,0,0],[0.5,0,0],[0.75,0,0],[1,0,0],[0,1,0],[0.25,1,0],[0.5,1,0],[0.75,1,0],[1,1,0],[0,0.25,0],[0,0.5,0],[0,0.75,0],[1,0.25,0],[1,0.5,0],[1,0.75,0]];outlineConnect=0;fontColor=#232F3E;fillColor=#C925D1;strokeColor=#ffffff;dashed=0;verticalLabelPosition=bottom;verticalAlign=top;align=center;html=1;fontSize=10;fontStyle=0;aspect=fixed;shape=mxgraph.aws4.resourceIcon;resIcon=mxgraph.aws4.rds;" parent="oNuZaTdP7KxwaS3hmppc-1" vertex="1">
          <mxGeometry x="551" y="795.75" width="40" height="40" as="geometry" />
        </mxCell>
        <mxCell id="NRptelGG9SxiEdhYpK35-67" value="S3" style="sketch=0;points=[[0,0,0],[0.25,0,0],[0.5,0,0],[0.75,0,0],[1,0,0],[0,1,0],[0.25,1,0],[0.5,1,0],[0.75,1,0],[1,1,0],[0,0.25,0],[0,0.5,0],[0,0.75,0],[1,0.25,0],[1,0.5,0],[1,0.75,0]];outlineConnect=0;fontColor=#232F3E;fillColor=#7AA116;strokeColor=#ffffff;dashed=0;verticalLabelPosition=bottom;verticalAlign=top;align=center;html=1;fontSize=10;fontStyle=0;aspect=fixed;shape=mxgraph.aws4.resourceIcon;resIcon=mxgraph.aws4.s3;" parent="oNuZaTdP7KxwaS3hmppc-1" vertex="1">
          <mxGeometry x="349.18" y="780.75" width="40" height="40" as="geometry" />
        </mxCell>
        <mxCell id="NRptelGG9SxiEdhYpK35-69" value="Lambda" style="sketch=0;points=[[0,0,0],[0.25,0,0],[0.5,0,0],[0.75,0,0],[1,0,0],[0,1,0],[0.25,1,0],[0.5,1,0],[0.75,1,0],[1,1,0],[0,0.25,0],[0,0.5,0],[0,0.75,0],[1,0.25,0],[1,0.5,0],[1,0.75,0]];outlineConnect=0;fontColor=#232F3E;fillColor=#ED7100;strokeColor=#ffffff;dashed=0;verticalLabelPosition=bottom;verticalAlign=top;align=center;html=1;fontSize=10;fontStyle=0;aspect=fixed;shape=mxgraph.aws4.resourceIcon;resIcon=mxgraph.aws4.lambda;" parent="oNuZaTdP7KxwaS3hmppc-1" vertex="1">
          <mxGeometry x="349.18" y="698.75" width="40" height="40" as="geometry" />
        </mxCell>
        <mxCell id="yqbBFRisXSYn3qcn8zqh-0" value="Region" style="points=[[0,0],[0.25,0],[0.5,0],[0.75,0],[1,0],[1,0.25],[1,0.5],[1,0.75],[1,1],[0.75,1],[0.5,1],[0.25,1],[0,1],[0,0.75],[0,0.5],[0,0.25]];outlineConnect=0;gradientColor=none;html=1;whiteSpace=wrap;fontSize=12;fontStyle=0;container=1;pointerEvents=0;collapsible=0;recursiveResize=0;shape=mxgraph.aws4.group;grIcon=mxgraph.aws4.group_region;strokeColor=#00A4A6;fillColor=none;verticalAlign=top;align=left;spacingLeft=30;fontColor=#147EBA;dashed=1;" parent="oNuZaTdP7KxwaS3hmppc-1" vertex="1">
          <mxGeometry x="80" y="440" width="590" height="530" as="geometry" />
        </mxCell>
        <mxCell id="F9K-ijbkniqQkB6aPCZD-0" value="Private subnet" style="points=[[0,0],[0.25,0],[0.5,0],[0.75,0],[1,0],[1,0.25],[1,0.5],[1,0.75],[1,1],[0.75,1],[0.5,1],[0.25,1],[0,1],[0,0.75],[0,0.5],[0,0.25]];outlineConnect=0;gradientColor=none;html=1;whiteSpace=wrap;fontSize=12;fontStyle=0;container=1;pointerEvents=0;collapsible=0;recursiveResize=0;shape=mxgraph.aws4.group;grIcon=mxgraph.aws4.group_security_group;grStroke=0;strokeColor=#00A4A6;fillColor=#E6F6F7;verticalAlign=top;align=left;spacingLeft=30;fontColor=#147EBA;dashed=0;" parent="yqbBFRisXSYn3qcn8zqh-0" vertex="1">
          <mxGeometry x="41.16" y="344" width="78" height="86" as="geometry" />
        </mxCell>
        <mxCell id="NRptelGG9SxiEdhYpK35-47" value="&lt;font style=&quot;font-size: 10px;&quot;&gt;IG&lt;/font&gt;" style="outlineConnect=0;dashed=0;verticalLabelPosition=bottom;verticalAlign=top;align=center;html=1;shape=mxgraph.aws3.internet_gateway;fillColor=#F58534;gradientColor=none;aspect=fixed;fontSize=8;" parent="yqbBFRisXSYn3qcn8zqh-0" vertex="1">
          <mxGeometry x="250" y="59" width="40" height="41.74" as="geometry" />
        </mxCell>
        <mxCell id="NRptelGG9SxiEdhYpK35-4" value="ECS" style="sketch=0;points=[[0,0,0],[0.25,0,0],[0.5,0,0],[0.75,0,0],[1,0,0],[0,1,0],[0.25,1,0],[0.5,1,0],[0.75,1,0],[1,1,0],[0,0.25,0],[0,0.5,0],[0,0.75,0],[1,0.25,0],[1,0.5,0],[1,0.75,0]];outlineConnect=0;fontColor=#232F3E;fillColor=#ED7100;strokeColor=#ffffff;dashed=0;verticalLabelPosition=bottom;verticalAlign=top;align=center;html=1;fontSize=10;fontStyle=0;aspect=fixed;shape=mxgraph.aws4.resourceIcon;resIcon=mxgraph.aws4.ecs;" parent="oNuZaTdP7KxwaS3hmppc-1" vertex="1">
          <mxGeometry x="140.16" y="809.5" width="40" height="40" as="geometry" />
        </mxCell>
        <mxCell id="F9K-ijbkniqQkB6aPCZD-1" value="Private subnet" style="points=[[0,0],[0.25,0],[0.5,0],[0.75,0],[1,0],[1,0.25],[1,0.5],[1,0.75],[1,1],[0.75,1],[0.5,1],[0.25,1],[0,1],[0,0.75],[0,0.5],[0,0.25]];outlineConnect=0;gradientColor=none;html=1;whiteSpace=wrap;fontSize=12;fontStyle=0;container=1;pointerEvents=0;collapsible=0;recursiveResize=0;shape=mxgraph.aws4.group;grIcon=mxgraph.aws4.group_security_group;grStroke=0;strokeColor=#00A4A6;fillColor=#E6F6F7;verticalAlign=top;align=left;spacingLeft=30;fontColor=#147EBA;dashed=0;" parent="oNuZaTdP7KxwaS3hmppc-1" vertex="1">
          <mxGeometry x="426.84000000000003" y="689" width="78" height="90" as="geometry" />
        </mxCell>
        <mxCell id="F9K-ijbkniqQkB6aPCZD-2" value="ECS" style="sketch=0;points=[[0,0,0],[0.25,0,0],[0.5,0,0],[0.75,0,0],[1,0,0],[0,1,0],[0.25,1,0],[0.5,1,0],[0.75,1,0],[1,1,0],[0,0.25,0],[0,0.5,0],[0,0.75,0],[1,0.25,0],[1,0.5,0],[1,0.75,0]];outlineConnect=0;fontColor=#232F3E;fillColor=#ED7100;strokeColor=#ffffff;dashed=0;verticalLabelPosition=bottom;verticalAlign=top;align=center;html=1;fontSize=10;fontStyle=0;aspect=fixed;shape=mxgraph.aws4.resourceIcon;resIcon=mxgraph.aws4.ecs;" parent="oNuZaTdP7KxwaS3hmppc-1" vertex="1">
          <mxGeometry x="446.59000000000003" y="724.75" width="40" height="40" as="geometry" />
        </mxCell>
        <mxCell id="F9K-ijbkniqQkB6aPCZD-4" value="Private subnet" style="points=[[0,0],[0.25,0],[0.5,0],[0.75,0],[1,0],[1,0.25],[1,0.5],[1,0.75],[1,1],[0.75,1],[0.5,1],[0.25,1],[0,1],[0,0.75],[0,0.5],[0,0.25]];outlineConnect=0;gradientColor=none;html=1;whiteSpace=wrap;fontSize=12;fontStyle=0;container=1;pointerEvents=0;collapsible=0;recursiveResize=0;shape=mxgraph.aws4.group;grIcon=mxgraph.aws4.group_security_group;grStroke=0;strokeColor=#00A4A6;fillColor=#E6F6F7;verticalAlign=top;align=left;spacingLeft=30;fontColor=#147EBA;dashed=0;" parent="oNuZaTdP7KxwaS3hmppc-1" vertex="1">
          <mxGeometry x="425.16" y="790" width="78" height="79" as="geometry" />
        </mxCell>
        <mxCell id="F9K-ijbkniqQkB6aPCZD-6" value="ECS" style="sketch=0;points=[[0,0,0],[0.25,0,0],[0.5,0,0],[0.75,0,0],[1,0,0],[0,1,0],[0.25,1,0],[0.5,1,0],[0.75,1,0],[1,1,0],[0,0.25,0],[0,0.5,0],[0,0.75,0],[1,0.25,0],[1,0.5,0],[1,0.75,0]];outlineConnect=0;fontColor=#232F3E;fillColor=#ED7100;strokeColor=#ffffff;dashed=0;verticalLabelPosition=bottom;verticalAlign=top;align=center;html=1;fontSize=10;fontStyle=0;aspect=fixed;shape=mxgraph.aws4.resourceIcon;resIcon=mxgraph.aws4.ecs;" parent="oNuZaTdP7KxwaS3hmppc-1" vertex="1">
          <mxGeometry x="444.15999999999997" y="811.5" width="40" height="40" as="geometry" />
        </mxCell>
        <mxCell id="t0qkh7jYwJLuSHXCFphp-0" value="WAF" style="outlineConnect=0;dashed=0;verticalLabelPosition=bottom;verticalAlign=top;align=center;html=1;shape=mxgraph.aws3.waf;fillColor=#759C3E;gradientColor=none;aspect=fixed;fontSize=10;" parent="oNuZaTdP7KxwaS3hmppc-1" vertex="1">
          <mxGeometry x="348.09" y="601.56" width="40" height="48.63" as="geometry" />
        </mxCell>
        <mxCell id="t22D1V0Hx84reCuX_KAE-0" value="IAM" style="outlineConnect=0;dashed=0;verticalLabelPosition=bottom;verticalAlign=top;align=center;html=1;shape=mxgraph.aws3.iam;fillColor=#759C3E;gradientColor=none;aspect=fixed;fontSize=10;" parent="oNuZaTdP7KxwaS3hmppc-1" vertex="1">
          <mxGeometry x="624.16" y="980.44" width="25" height="48.21" as="geometry" />
        </mxCell>
        <mxCell id="t22D1V0Hx84reCuX_KAE-2" value="CloudWatch" style="outlineConnect=0;dashed=0;verticalLabelPosition=bottom;verticalAlign=top;align=center;html=1;shape=mxgraph.aws3.cloudwatch;fillColor=#759C3E;gradientColor=none;aspect=fixed;fontSize=10;" parent="oNuZaTdP7KxwaS3hmppc-1" vertex="1">
          <mxGeometry x="554.16" y="983" width="40" height="45.09" as="geometry" />
        </mxCell>
        <mxCell id="t22D1V0Hx84reCuX_KAE-4" value="CloudTrail" style="outlineConnect=0;dashed=0;verticalLabelPosition=bottom;verticalAlign=top;align=center;html=1;shape=mxgraph.aws3.cloudtrail;fillColor=#759C3E;gradientColor=none;aspect=fixed;fontSize=10;" parent="oNuZaTdP7KxwaS3hmppc-1" vertex="1">
          <mxGeometry x="484.15999999999997" y="980" width="40" height="48.63" as="geometry" />
        </mxCell>
        <mxCell id="yqbBFRisXSYn3qcn8zqh-1" value="Testing VPC" style="sketch=0;outlineConnect=0;gradientColor=none;html=1;whiteSpace=wrap;fontSize=12;fontStyle=0;shape=mxgraph.aws4.group;grIcon=mxgraph.aws4.group_vpc;strokeColor=#879196;fillColor=none;verticalAlign=top;align=left;spacingLeft=30;fontColor=#879196;dashed=0;" parent="oNuZaTdP7KxwaS3hmppc-1" vertex="1">
          <mxGeometry x="100" y="890" width="550" height="50" as="geometry" />
        </mxCell>
        <mxCell id="mx1gqB2VCBqtOJcs2vgW-0" value="" style="endArrow=classic;html=1;rounded=0;" edge="1" parent="oNuZaTdP7KxwaS3hmppc-1" source="oNuZaTdP7KxwaS3hmppc-6" target="oNuZaTdP7KxwaS3hmppc-39">
          <mxGeometry width="50" height="50" relative="1" as="geometry">
            <mxPoint x="180" y="350" as="sourcePoint" />
            <mxPoint x="230" y="300" as="targetPoint" />
            <Array as="points">
              <mxPoint x="210" y="360" />
            </Array>
          </mxGeometry>
        </mxCell>
        <mxCell id="mx1gqB2VCBqtOJcs2vgW-1" value="" style="endArrow=classic;html=1;rounded=0;" edge="1" parent="oNuZaTdP7KxwaS3hmppc-1" source="oNuZaTdP7KxwaS3hmppc-3" target="oNuZaTdP7KxwaS3hmppc-39">
          <mxGeometry width="50" height="50" relative="1" as="geometry">
            <mxPoint x="330" y="350" as="sourcePoint" />
            <mxPoint x="380" y="300" as="targetPoint" />
          </mxGeometry>
        </mxCell>
        <mxCell id="mx1gqB2VCBqtOJcs2vgW-6" value="" style="endArrow=classic;html=1;rounded=0;" edge="1" parent="oNuZaTdP7KxwaS3hmppc-1" source="oNuZaTdP7KxwaS3hmppc-5">
          <mxGeometry width="50" height="50" relative="1" as="geometry">
            <mxPoint x="525" y="280" as="sourcePoint" />
            <mxPoint x="524.5" y="359.98" as="targetPoint" />
            <Array as="points">
              <mxPoint x="524.5" y="359.98" />
            </Array>
          </mxGeometry>
        </mxCell>
      </root>
    </mxGraphModel>
  </diagram>
  <diagram name="Detail Design" id="b-kD2nOWwqHASJdQ8WTZ">
    <mxGraphModel dx="1393" dy="740" grid="1" gridSize="10" guides="1" tooltips="1" connect="1" arrows="1" fold="1" page="1" pageScale="1" pageWidth="827" pageHeight="1169" math="0" shadow="0">
      <root>
        <mxCell id="gC3pRWRQBrtmoeh_WA6f-0" />
        <mxCell id="gC3pRWRQBrtmoeh_WA6f-1" parent="gC3pRWRQBrtmoeh_WA6f-0" />
        <mxCell id="gC3pRWRQBrtmoeh_WA6f-5" value="AWS Cloud" style="sketch=0;outlineConnect=0;gradientColor=none;html=1;whiteSpace=wrap;fontSize=12;fontStyle=0;shape=mxgraph.aws4.group;grIcon=mxgraph.aws4.group_aws_cloud;strokeColor=#AAB7B8;fillColor=none;verticalAlign=top;align=left;spacingLeft=30;fontColor=#AAB7B8;dashed=0;" vertex="1" parent="gC3pRWRQBrtmoeh_WA6f-1">
          <mxGeometry x="60" y="173" width="700" height="857" as="geometry" />
        </mxCell>
        <mxCell id="gC3pRWRQBrtmoeh_WA6f-3" value="Availability Zone a" style="fillColor=none;strokeColor=#147EBA;dashed=1;verticalAlign=top;fontStyle=0;fontColor=#147EBA;whiteSpace=wrap;html=1;" vertex="1" parent="gC3pRWRQBrtmoeh_WA6f-1">
          <mxGeometry x="110" y="283" width="220" height="637" as="geometry" />
        </mxCell>
        <mxCell id="gC3pRWRQBrtmoeh_WA6f-4" value="Production VPC" style="sketch=0;outlineConnect=0;gradientColor=none;html=1;whiteSpace=wrap;fontSize=12;fontStyle=0;shape=mxgraph.aws4.group;grIcon=mxgraph.aws4.group_vpc;strokeColor=#879196;fillColor=none;verticalAlign=top;align=left;spacingLeft=30;fontColor=#879196;dashed=0;" vertex="1" parent="gC3pRWRQBrtmoeh_WA6f-1">
          <mxGeometry x="100" y="323" width="570" height="517" as="geometry" />
        </mxCell>
        <mxCell id="gC3pRWRQBrtmoeh_WA6f-2" value="Availability Zone b" style="fillColor=none;strokeColor=#147EBA;dashed=1;verticalAlign=top;fontStyle=0;fontColor=#147EBA;whiteSpace=wrap;html=1;" vertex="1" parent="gC3pRWRQBrtmoeh_WA6f-1">
          <mxGeometry x="410" y="283" width="220" height="637" as="geometry" />
        </mxCell>
        <mxCell id="gC3pRWRQBrtmoeh_WA6f-6" value="&lt;font style=&quot;font-size: 10px;&quot;&gt;Mobile Client&lt;/font&gt;" style="sketch=0;outlineConnect=0;fontColor=#232F3E;gradientColor=none;fillColor=#232F3D;strokeColor=none;dashed=0;verticalLabelPosition=bottom;verticalAlign=top;align=center;html=1;fontSize=12;fontStyle=0;aspect=fixed;pointerEvents=1;shape=mxgraph.aws4.mobile_client;" vertex="1" parent="gC3pRWRQBrtmoeh_WA6f-1">
          <mxGeometry x="421.85999999999996" y="68" width="26.28" height="50" as="geometry" />
        </mxCell>
        <mxCell id="gC3pRWRQBrtmoeh_WA6f-7" value="&lt;font style=&quot;font-size: 10px;&quot;&gt;User&lt;/font&gt;" style="sketch=0;outlineConnect=0;fontColor=#232F3E;gradientColor=none;fillColor=#232F3D;strokeColor=none;dashed=0;verticalLabelPosition=bottom;verticalAlign=top;align=center;html=1;fontSize=12;fontStyle=0;aspect=fixed;pointerEvents=1;shape=mxgraph.aws4.user;" vertex="1" parent="gC3pRWRQBrtmoeh_WA6f-1">
          <mxGeometry x="511" y="73" width="40" height="40" as="geometry" />
        </mxCell>
        <mxCell id="gC3pRWRQBrtmoeh_WA6f-8" value="&lt;font style=&quot;font-size: 10px;&quot;&gt;Web Client&lt;/font&gt;" style="sketch=0;outlineConnect=0;fontColor=#232F3E;gradientColor=none;fillColor=#232F3D;strokeColor=none;dashed=0;verticalLabelPosition=bottom;verticalAlign=top;align=center;html=1;fontSize=12;fontStyle=0;aspect=fixed;pointerEvents=1;shape=mxgraph.aws4.client;" vertex="1" parent="gC3pRWRQBrtmoeh_WA6f-1">
          <mxGeometry x="299" y="79.02000000000001" width="40" height="38.98" as="geometry" />
        </mxCell>
        <mxCell id="gC3pRWRQBrtmoeh_WA6f-12" style="edgeStyle=orthogonalEdgeStyle;rounded=0;orthogonalLoop=1;jettySize=auto;html=1;entryX=0.5;entryY=0;entryDx=0;entryDy=0;entryPerimeter=0;" edge="1" parent="gC3pRWRQBrtmoeh_WA6f-1" source="gC3pRWRQBrtmoeh_WA6f-7" target="gC3pRWRQBrtmoeh_WA6f-19">
          <mxGeometry relative="1" as="geometry">
            <mxPoint x="540" y="203" as="targetPoint" />
            <Array as="points">
              <mxPoint x="530" y="243" />
              <mxPoint x="400" y="243" />
            </Array>
            <mxPoint x="540" y="153" as="sourcePoint" />
          </mxGeometry>
        </mxCell>
        <mxCell id="c4jT5kLYIAUny72i_QD4-25" style="edgeStyle=orthogonalEdgeStyle;rounded=0;orthogonalLoop=1;jettySize=auto;html=1;" edge="1" parent="gC3pRWRQBrtmoeh_WA6f-1" source="gC3pRWRQBrtmoeh_WA6f-23" target="gC3pRWRQBrtmoeh_WA6f-34">
          <mxGeometry relative="1" as="geometry" />
        </mxCell>
        <mxCell id="gC3pRWRQBrtmoeh_WA6f-23" value="&lt;font style=&quot;font-size: 10px;&quot;&gt;Amazon&amp;nbsp;&lt;/font&gt;&lt;div&gt;&lt;font style=&quot;font-size: 10px;&quot;&gt;CloudFront&lt;/font&gt;&lt;/div&gt;" style="sketch=0;points=[[0,0,0],[0.25,0,0],[0.5,0,0],[0.75,0,0],[1,0,0],[0,1,0],[0.25,1,0],[0.5,1,0],[0.75,1,0],[1,1,0],[0,0.25,0],[0,0.5,0],[0,0.75,0],[1,0.25,0],[1,0.5,0],[1,0.75,0]];outlineConnect=0;fontColor=#232F3E;fillColor=#8C4FFF;strokeColor=#ffffff;dashed=0;verticalLabelPosition=bottom;verticalAlign=top;align=center;html=1;fontSize=8;fontStyle=0;aspect=fixed;shape=mxgraph.aws4.resourceIcon;resIcon=mxgraph.aws4.cloudfront;" vertex="1" parent="gC3pRWRQBrtmoeh_WA6f-1">
          <mxGeometry x="692.0000000000001" y="193" width="40" height="40" as="geometry" />
        </mxCell>
        <mxCell id="R5-E7bXyrzcWkTDUfUbq-0" value="Public subnet" style="points=[[0,0],[0.25,0],[0.5,0],[0.75,0],[1,0],[1,0.25],[1,0.5],[1,0.75],[1,1],[0.75,1],[0.5,1],[0.25,1],[0,1],[0,0.75],[0,0.5],[0,0.25]];outlineConnect=0;gradientColor=none;html=1;whiteSpace=wrap;fontSize=12;fontStyle=0;container=1;pointerEvents=0;collapsible=0;recursiveResize=0;shape=mxgraph.aws4.group;grIcon=mxgraph.aws4.group_security_group;grStroke=0;strokeColor=#7AA116;fillColor=#F2F6E8;verticalAlign=top;align=left;spacingLeft=30;fontColor=#248814;dashed=0;" vertex="1" parent="gC3pRWRQBrtmoeh_WA6f-1">
          <mxGeometry x="129" y="363" width="491" height="130" as="geometry" />
        </mxCell>
        <mxCell id="gC3pRWRQBrtmoeh_WA6f-25" value="Private subnet" style="points=[[0,0],[0.25,0],[0.5,0],[0.75,0],[1,0],[1,0.25],[1,0.5],[1,0.75],[1,1],[0.75,1],[0.5,1],[0.25,1],[0,1],[0,0.75],[0,0.5],[0,0.25]];outlineConnect=0;gradientColor=none;html=1;whiteSpace=wrap;fontSize=12;fontStyle=0;container=1;pointerEvents=0;collapsible=0;recursiveResize=0;shape=mxgraph.aws4.group;grIcon=mxgraph.aws4.group_security_group;grStroke=0;strokeColor=#00A4A6;fillColor=#E6F6F7;verticalAlign=top;align=left;spacingLeft=30;fontColor=#147EBA;dashed=0;" vertex="1" parent="gC3pRWRQBrtmoeh_WA6f-1">
          <mxGeometry x="170" y="513" width="140" height="90" as="geometry" />
        </mxCell>
        <mxCell id="gC3pRWRQBrtmoeh_WA6f-34" value="&lt;font style=&quot;font-size: 10px;&quot;&gt;S3&lt;/font&gt;" style="sketch=0;points=[[0,0,0],[0.25,0,0],[0.5,0,0],[0.75,0,0],[1,0,0],[0,1,0],[0.25,1,0],[0.5,1,0],[0.75,1,0],[1,1,0],[0,0.25,0],[0,0.5,0],[0,0.75,0],[1,0.25,0],[1,0.5,0],[1,0.75,0]];outlineConnect=0;fontColor=#232F3E;fillColor=#7AA116;strokeColor=#ffffff;dashed=0;verticalLabelPosition=bottom;verticalAlign=top;align=center;html=1;fontSize=12;fontStyle=0;aspect=fixed;shape=mxgraph.aws4.resourceIcon;resIcon=mxgraph.aws4.s3;" vertex="1" parent="gC3pRWRQBrtmoeh_WA6f-1">
          <mxGeometry x="693" y="542" width="40" height="40" as="geometry" />
        </mxCell>
        <mxCell id="gC3pRWRQBrtmoeh_WA6f-38" value="Region" style="points=[[0,0],[0.25,0],[0.5,0],[0.75,0],[1,0],[1,0.25],[1,0.5],[1,0.75],[1,1],[0.75,1],[0.5,1],[0.25,1],[0,1],[0,0.75],[0,0.5],[0,0.25]];outlineConnect=0;gradientColor=none;html=1;whiteSpace=wrap;fontSize=12;fontStyle=0;container=1;pointerEvents=0;collapsible=0;recursiveResize=0;shape=mxgraph.aws4.group;grIcon=mxgraph.aws4.group_region;strokeColor=#00A4A6;fillColor=none;verticalAlign=top;align=left;spacingLeft=30;fontColor=#147EBA;dashed=1;" vertex="1" parent="gC3pRWRQBrtmoeh_WA6f-1">
          <mxGeometry x="80" y="253" width="660" height="687" as="geometry" />
        </mxCell>
        <mxCell id="gC3pRWRQBrtmoeh_WA6f-40" value="Private subnet" style="points=[[0,0],[0.25,0],[0.5,0],[0.75,0],[1,0],[1,0.25],[1,0.5],[1,0.75],[1,1],[0.75,1],[0.5,1],[0.25,1],[0,1],[0,0.75],[0,0.5],[0,0.25]];outlineConnect=0;gradientColor=none;html=1;whiteSpace=wrap;fontSize=12;fontStyle=0;container=1;pointerEvents=0;collapsible=0;recursiveResize=0;shape=mxgraph.aws4.group;grIcon=mxgraph.aws4.group_security_group;grStroke=0;strokeColor=#00A4A6;fillColor=#E6F6F7;verticalAlign=top;align=left;spacingLeft=30;fontColor=#147EBA;dashed=0;" vertex="1" parent="gC3pRWRQBrtmoeh_WA6f-38">
          <mxGeometry x="90" y="378.87" width="140.16" height="90" as="geometry" />
        </mxCell>
        <mxCell id="-_DuIp1jHnHVtXz94Fdv-8" value="" style="endArrow=classic;html=1;rounded=0;dashed=1;" edge="1" parent="gC3pRWRQBrtmoeh_WA6f-40">
          <mxGeometry width="50" height="50" relative="1" as="geometry">
            <mxPoint x="-20" y="51.129999999999995" as="sourcePoint" />
            <mxPoint y="51.129999999999995" as="targetPoint" />
          </mxGeometry>
        </mxCell>
        <mxCell id="gC3pRWRQBrtmoeh_WA6f-26" value="&lt;font style=&quot;font-size: 10px;&quot;&gt;ECS&lt;/font&gt;" style="sketch=0;points=[[0,0,0],[0.25,0,0],[0.5,0,0],[0.75,0,0],[1,0,0],[0,1,0],[0.25,1,0],[0.5,1,0],[0.75,1,0],[1,1,0],[0,0.25,0],[0,0.5,0],[0,0.75,0],[1,0.25,0],[1,0.5,0],[1,0.75,0]];outlineConnect=0;fontColor=#232F3E;fillColor=#ED7100;strokeColor=#ffffff;dashed=0;verticalLabelPosition=bottom;verticalAlign=top;align=center;html=1;fontSize=12;fontStyle=0;aspect=fixed;shape=mxgraph.aws4.resourceIcon;resIcon=mxgraph.aws4.ecs;" vertex="1" parent="gC3pRWRQBrtmoeh_WA6f-38">
          <mxGeometry x="180" y="297.87" width="40" height="40" as="geometry" />
        </mxCell>
        <mxCell id="gC3pRWRQBrtmoeh_WA6f-28" value="Private subnet" style="points=[[0,0],[0.25,0],[0.5,0],[0.75,0],[1,0],[1,0.25],[1,0.5],[1,0.75],[1,1],[0.75,1],[0.5,1],[0.25,1],[0,1],[0,0.75],[0,0.5],[0,0.25]];outlineConnect=0;gradientColor=none;html=1;whiteSpace=wrap;fontSize=12;fontStyle=0;container=1;pointerEvents=0;collapsible=0;recursiveResize=0;shape=mxgraph.aws4.group;grIcon=mxgraph.aws4.group_security_group;grStroke=0;strokeColor=#00A4A6;fillColor=#E6F6F7;verticalAlign=top;align=left;spacingLeft=30;fontColor=#147EBA;dashed=0;" vertex="1" parent="gC3pRWRQBrtmoeh_WA6f-38">
          <mxGeometry x="90" y="488.87" width="141.16" height="90" as="geometry" />
        </mxCell>
        <mxCell id="c4jT5kLYIAUny72i_QD4-12" value="" style="edgeStyle=orthogonalEdgeStyle;rounded=0;orthogonalLoop=1;jettySize=auto;html=1;entryX=0.5;entryY=0;entryDx=0;entryDy=0;entryPerimeter=0;" edge="1" parent="gC3pRWRQBrtmoeh_WA6f-38" source="gC3pRWRQBrtmoeh_WA6f-16" target="gC3pRWRQBrtmoeh_WA6f-26">
          <mxGeometry relative="1" as="geometry">
            <Array as="points">
              <mxPoint x="289" y="240" />
              <mxPoint x="200" y="240" />
            </Array>
          </mxGeometry>
        </mxCell>
        <mxCell id="gC3pRWRQBrtmoeh_WA6f-36" value="&lt;font style=&quot;font-size: 10px;&quot;&gt;Lambda&lt;/font&gt;" style="sketch=0;points=[[0,0,0],[0.25,0,0],[0.5,0,0],[0.75,0,0],[1,0,0],[0,1,0],[0.25,1,0],[0.5,1,0],[0.75,1,0],[1,1,0],[0,0.25,0],[0,0.5,0],[0,0.75,0],[1,0.25,0],[1,0.5,0],[1,0.75,0]];outlineConnect=0;fontColor=#232F3E;fillColor=#ED7100;strokeColor=#ffffff;dashed=0;verticalLabelPosition=bottom;verticalAlign=top;align=center;html=1;fontSize=12;fontStyle=0;aspect=fixed;shape=mxgraph.aws4.resourceIcon;resIcon=mxgraph.aws4.lambda;" vertex="1" parent="gC3pRWRQBrtmoeh_WA6f-38">
          <mxGeometry x="270" y="290" width="40" height="40" as="geometry" />
        </mxCell>
        <mxCell id="gC3pRWRQBrtmoeh_WA6f-19" value="&lt;font style=&quot;font-size: 10px;&quot;&gt;IG&lt;/font&gt;" style="outlineConnect=0;dashed=0;verticalLabelPosition=bottom;verticalAlign=top;align=center;html=1;shape=mxgraph.aws3.internet_gateway;fillColor=#F58534;gradientColor=none;aspect=fixed;fontSize=8;" vertex="1" parent="gC3pRWRQBrtmoeh_WA6f-38">
          <mxGeometry x="300" y="50" width="40" height="41.74" as="geometry" />
        </mxCell>
        <mxCell id="-_DuIp1jHnHVtXz94Fdv-2" style="edgeStyle=orthogonalEdgeStyle;rounded=0;orthogonalLoop=1;jettySize=auto;html=1;entryX=0.5;entryY=0;entryDx=0;entryDy=0;entryPerimeter=0;dashed=1;" edge="1" parent="gC3pRWRQBrtmoeh_WA6f-38" target="-_DuIp1jHnHVtXz94Fdv-1">
          <mxGeometry relative="1" as="geometry">
            <mxPoint x="320" y="130" as="sourcePoint" />
            <Array as="points">
              <mxPoint x="70" y="130" />
            </Array>
          </mxGeometry>
        </mxCell>
        <mxCell id="-_DuIp1jHnHVtXz94Fdv-7" value="" style="endArrow=classic;html=1;rounded=0;exitX=0.5;exitY=1;exitDx=0;exitDy=0;exitPerimeter=0;dashed=1;" edge="1" parent="gC3pRWRQBrtmoeh_WA6f-38" source="-_DuIp1jHnHVtXz94Fdv-1" target="gC3pRWRQBrtmoeh_WA6f-28">
          <mxGeometry width="50" height="50" relative="1" as="geometry">
            <mxPoint x="30" y="460" as="sourcePoint" />
            <mxPoint x="80" y="410" as="targetPoint" />
            <Array as="points">
              <mxPoint x="70" y="534" />
            </Array>
          </mxGeometry>
        </mxCell>
        <mxCell id="gC3pRWRQBrtmoeh_WA6f-16" value="&lt;font style=&quot;font-size: 10px;&quot;&gt;Application LB&lt;/font&gt;" style="sketch=0;outlineConnect=0;fontColor=#232F3E;gradientColor=none;fillColor=#8C4FFF;strokeColor=none;dashed=0;verticalLabelPosition=bottom;verticalAlign=top;align=center;html=1;fontSize=12;fontStyle=0;aspect=fixed;pointerEvents=1;shape=mxgraph.aws4.application_load_balancer;" vertex="1" parent="gC3pRWRQBrtmoeh_WA6f-38">
          <mxGeometry x="270" y="167.87" width="40" height="40" as="geometry" />
        </mxCell>
        <mxCell id="-_DuIp1jHnHVtXz94Fdv-0" value="&lt;font style=&quot;font-size: 10px;&quot;&gt;NAT GW&lt;/font&gt;" style="outlineConnect=0;dashed=0;verticalLabelPosition=bottom;verticalAlign=top;align=center;html=1;shape=mxgraph.aws3.vpc_nat_gateway;fillColor=#F58536;gradientColor=none;" vertex="1" parent="gC3pRWRQBrtmoeh_WA6f-38">
          <mxGeometry x="490" y="155" width="40" height="40" as="geometry" />
        </mxCell>
        <mxCell id="-_DuIp1jHnHVtXz94Fdv-1" value="&lt;font style=&quot;font-size: 10px;&quot;&gt;NAT GW&lt;/font&gt;" style="outlineConnect=0;dashed=0;verticalLabelPosition=bottom;verticalAlign=top;align=center;html=1;shape=mxgraph.aws3.vpc_nat_gateway;fillColor=#F58536;gradientColor=none;" vertex="1" parent="gC3pRWRQBrtmoeh_WA6f-38">
          <mxGeometry x="50" y="158.87" width="40" height="40" as="geometry" />
        </mxCell>
        <mxCell id="d7GGjO82PSVsw8Ra-hS1-1" style="edgeStyle=orthogonalEdgeStyle;rounded=0;orthogonalLoop=1;jettySize=auto;html=1;" edge="1" parent="gC3pRWRQBrtmoeh_WA6f-38" source="gC3pRWRQBrtmoeh_WA6f-50" target="gC3pRWRQBrtmoeh_WA6f-16">
          <mxGeometry relative="1" as="geometry" />
        </mxCell>
        <mxCell id="gC3pRWRQBrtmoeh_WA6f-50" value="&lt;font style=&quot;font-size: 10px;&quot;&gt;WAF&lt;/font&gt;" style="outlineConnect=0;dashed=0;verticalLabelPosition=bottom;verticalAlign=top;align=center;html=1;shape=mxgraph.aws3.waf;fillColor=#759C3E;gradientColor=none;aspect=fixed;" vertex="1" parent="gC3pRWRQBrtmoeh_WA6f-38">
          <mxGeometry x="270" y="91.74000000000001" width="40" height="48.63" as="geometry" />
        </mxCell>
        <mxCell id="kvPwELvMFlcFyS21F46v-0" value="Testing VPC" style="sketch=0;outlineConnect=0;gradientColor=none;html=1;whiteSpace=wrap;fontSize=12;fontStyle=0;shape=mxgraph.aws4.group;grIcon=mxgraph.aws4.group_vpc;strokeColor=#879196;fillColor=none;verticalAlign=top;align=left;spacingLeft=30;fontColor=#879196;dashed=0;" vertex="1" parent="gC3pRWRQBrtmoeh_WA6f-38">
          <mxGeometry x="20" y="597" width="570" height="50" as="geometry" />
        </mxCell>
        <mxCell id="gC3pRWRQBrtmoeh_WA6f-43" value="&lt;font style=&quot;font-size: 10px;&quot;&gt;ECS&lt;/font&gt;" style="sketch=0;points=[[0,0,0],[0.25,0,0],[0.5,0,0],[0.75,0,0],[1,0,0],[0,1,0],[0.25,1,0],[0.5,1,0],[0.75,1,0],[1,1,0],[0,0.25,0],[0,0.5,0],[0,0.75,0],[1,0.25,0],[1,0.5,0],[1,0.75,0]];outlineConnect=0;fontColor=#232F3E;fillColor=#ED7100;strokeColor=#ffffff;dashed=0;verticalLabelPosition=bottom;verticalAlign=top;align=center;html=1;fontSize=12;fontStyle=0;aspect=fixed;shape=mxgraph.aws4.resourceIcon;resIcon=mxgraph.aws4.ecs;" vertex="1" parent="gC3pRWRQBrtmoeh_WA6f-1">
          <mxGeometry x="259.47" y="647.5" width="40" height="40" as="geometry" />
        </mxCell>
        <mxCell id="gC3pRWRQBrtmoeh_WA6f-52" value="&lt;font style=&quot;font-size: 10px;&quot;&gt;IAM&lt;/font&gt;" style="outlineConnect=0;dashed=0;verticalLabelPosition=bottom;verticalAlign=top;align=center;html=1;shape=mxgraph.aws3.iam;fillColor=#759C3E;gradientColor=none;aspect=fixed;" vertex="1" parent="gC3pRWRQBrtmoeh_WA6f-1">
          <mxGeometry x="713" y="950.44" width="25" height="48.21" as="geometry" />
        </mxCell>
        <mxCell id="gC3pRWRQBrtmoeh_WA6f-54" value="&lt;font style=&quot;font-size: 10px;&quot;&gt;CloudWatch&lt;/font&gt;" style="outlineConnect=0;dashed=0;verticalLabelPosition=bottom;verticalAlign=top;align=center;html=1;shape=mxgraph.aws3.cloudwatch;fillColor=#759C3E;gradientColor=none;aspect=fixed;" vertex="1" parent="gC3pRWRQBrtmoeh_WA6f-1">
          <mxGeometry x="643" y="952" width="40" height="45.09" as="geometry" />
        </mxCell>
        <mxCell id="gC3pRWRQBrtmoeh_WA6f-56" value="&lt;font style=&quot;font-size: 10px;&quot;&gt;CloudTrail&lt;/font&gt;" style="outlineConnect=0;dashed=0;verticalLabelPosition=bottom;verticalAlign=top;align=center;html=1;shape=mxgraph.aws3.cloudtrail;fillColor=#759C3E;gradientColor=none;aspect=fixed;" vertex="1" parent="gC3pRWRQBrtmoeh_WA6f-1">
          <mxGeometry x="573" y="948" width="40" height="48.63" as="geometry" />
        </mxCell>
        <mxCell id="gC3pRWRQBrtmoeh_WA6f-30" value="&lt;font style=&quot;font-size: 10px;&quot;&gt;RDS&lt;/font&gt;" style="sketch=0;points=[[0,0,0],[0.25,0,0],[0.5,0,0],[0.75,0,0],[1,0,0],[0,1,0],[0.25,1,0],[0.5,1,0],[0.75,1,0],[1,1,0],[0,0.25,0],[0,0.5,0],[0,0.75,0],[1,0.25,0],[1,0.5,0],[1,0.75,0]];outlineConnect=0;fontColor=#232F3E;fillColor=#C925D1;strokeColor=#ffffff;dashed=0;verticalLabelPosition=bottom;verticalAlign=top;align=center;html=1;fontSize=12;fontStyle=0;aspect=fixed;shape=mxgraph.aws4.resourceIcon;resIcon=mxgraph.aws4.rds;" vertex="1" parent="gC3pRWRQBrtmoeh_WA6f-1">
          <mxGeometry x="259" y="762" width="40" height="40" as="geometry" />
        </mxCell>
        <mxCell id="c4jT5kLYIAUny72i_QD4-6" value="Private subnet" style="points=[[0,0],[0.25,0],[0.5,0],[0.75,0],[1,0],[1,0.25],[1,0.5],[1,0.75],[1,1],[0.75,1],[0.5,1],[0.25,1],[0,1],[0,0.75],[0,0.5],[0,0.25]];outlineConnect=0;gradientColor=none;html=1;whiteSpace=wrap;fontSize=12;fontStyle=0;container=1;pointerEvents=0;collapsible=0;recursiveResize=0;shape=mxgraph.aws4.group;grIcon=mxgraph.aws4.group_security_group;grStroke=0;strokeColor=#00A4A6;fillColor=#E6F6F7;verticalAlign=top;align=left;spacingLeft=30;fontColor=#147EBA;dashed=0;" vertex="1" parent="gC3pRWRQBrtmoeh_WA6f-1">
          <mxGeometry x="428" y="513" width="140" height="90" as="geometry" />
        </mxCell>
        <mxCell id="c4jT5kLYIAUny72i_QD4-7" value="Private subnet" style="points=[[0,0],[0.25,0],[0.5,0],[0.75,0],[1,0],[1,0.25],[1,0.5],[1,0.75],[1,1],[0.75,1],[0.5,1],[0.25,1],[0,1],[0,0.75],[0,0.5],[0,0.25]];outlineConnect=0;gradientColor=none;html=1;whiteSpace=wrap;fontSize=12;fontStyle=0;container=1;pointerEvents=0;collapsible=0;recursiveResize=0;shape=mxgraph.aws4.group;grIcon=mxgraph.aws4.group_security_group;grStroke=0;strokeColor=#00A4A6;fillColor=#E6F6F7;verticalAlign=top;align=left;spacingLeft=30;fontColor=#147EBA;dashed=0;" vertex="1" parent="gC3pRWRQBrtmoeh_WA6f-1">
          <mxGeometry x="428.15999999999997" y="623" width="140" height="90" as="geometry" />
        </mxCell>
        <mxCell id="c4jT5kLYIAUny72i_QD4-8" value="&lt;font style=&quot;font-size: 10px;&quot;&gt;ECS&lt;/font&gt;" style="sketch=0;points=[[0,0,0],[0.25,0,0],[0.5,0,0],[0.75,0,0],[1,0,0],[0,1,0],[0.25,1,0],[0.5,1,0],[0.75,1,0],[1,1,0],[0,0.25,0],[0,0.5,0],[0,0.75,0],[1,0.25,0],[1,0.5,0],[1,0.75,0]];outlineConnect=0;fontColor=#232F3E;fillColor=#ED7100;strokeColor=#ffffff;dashed=0;verticalLabelPosition=bottom;verticalAlign=top;align=center;html=1;fontSize=12;fontStyle=0;aspect=fixed;shape=mxgraph.aws4.resourceIcon;resIcon=mxgraph.aws4.ecs;" vertex="1" parent="gC3pRWRQBrtmoeh_WA6f-1">
          <mxGeometry x="458" y="542" width="40" height="40" as="geometry" />
        </mxCell>
        <mxCell id="c4jT5kLYIAUny72i_QD4-9" value="Private subnet" style="points=[[0,0],[0.25,0],[0.5,0],[0.75,0],[1,0],[1,0.25],[1,0.5],[1,0.75],[1,1],[0.75,1],[0.5,1],[0.25,1],[0,1],[0,0.75],[0,0.5],[0,0.25]];outlineConnect=0;gradientColor=none;html=1;whiteSpace=wrap;fontSize=12;fontStyle=0;container=1;pointerEvents=0;collapsible=0;recursiveResize=0;shape=mxgraph.aws4.group;grIcon=mxgraph.aws4.group_security_group;grStroke=0;strokeColor=#00A4A6;fillColor=#E6F6F7;verticalAlign=top;align=left;spacingLeft=30;fontColor=#147EBA;dashed=0;" vertex="1" parent="gC3pRWRQBrtmoeh_WA6f-1">
          <mxGeometry x="429.15999999999997" y="733" width="140" height="90" as="geometry" />
        </mxCell>
        <mxCell id="c4jT5kLYIAUny72i_QD4-10" value="&lt;font style=&quot;font-size: 10px;&quot;&gt;ECS&lt;/font&gt;" style="sketch=0;points=[[0,0,0],[0.25,0,0],[0.5,0,0],[0.75,0,0],[1,0,0],[0,1,0],[0.25,1,0],[0.5,1,0],[0.75,1,0],[1,1,0],[0,0.25,0],[0,0.5,0],[0,0.75,0],[1,0.25,0],[1,0.5,0],[1,0.75,0]];outlineConnect=0;fontColor=#232F3E;fillColor=#ED7100;strokeColor=#ffffff;dashed=0;verticalLabelPosition=bottom;verticalAlign=top;align=center;html=1;fontSize=12;fontStyle=0;aspect=fixed;shape=mxgraph.aws4.resourceIcon;resIcon=mxgraph.aws4.ecs;" vertex="1" parent="gC3pRWRQBrtmoeh_WA6f-1">
          <mxGeometry x="457.47" y="647.5" width="40" height="40" as="geometry" />
        </mxCell>
        <mxCell id="c4jT5kLYIAUny72i_QD4-11" value="&lt;font style=&quot;font-size: 10px;&quot;&gt;RDS&lt;/font&gt;" style="sketch=0;points=[[0,0,0],[0.25,0,0],[0.5,0,0],[0.75,0,0],[1,0,0],[0,1,0],[0.25,1,0],[0.5,1,0],[0.75,1,0],[1,1,0],[0,0.25,0],[0,0.5,0],[0,0.75,0],[1,0.25,0],[1,0.5,0],[1,0.75,0]];outlineConnect=0;fontColor=#232F3E;fillColor=#C925D1;strokeColor=#ffffff;dashed=0;verticalLabelPosition=bottom;verticalAlign=top;align=center;html=1;fontSize=12;fontStyle=0;aspect=fixed;shape=mxgraph.aws4.resourceIcon;resIcon=mxgraph.aws4.rds;" vertex="1" parent="gC3pRWRQBrtmoeh_WA6f-1">
          <mxGeometry x="457" y="762" width="40" height="40" as="geometry" />
        </mxCell>
        <mxCell id="c4jT5kLYIAUny72i_QD4-13" value="" style="endArrow=classic;html=1;rounded=0;entryX=0.5;entryY=0;entryDx=0;entryDy=0;entryPerimeter=0;" edge="1" parent="gC3pRWRQBrtmoeh_WA6f-1" target="c4jT5kLYIAUny72i_QD4-8">
          <mxGeometry width="50" height="50" relative="1" as="geometry">
            <mxPoint x="370" y="493" as="sourcePoint" />
            <mxPoint x="280" y="543" as="targetPoint" />
            <Array as="points">
              <mxPoint x="478" y="493" />
            </Array>
          </mxGeometry>
        </mxCell>
        <mxCell id="c4jT5kLYIAUny72i_QD4-14" style="edgeStyle=orthogonalEdgeStyle;rounded=0;orthogonalLoop=1;jettySize=auto;html=1;" edge="1" parent="gC3pRWRQBrtmoeh_WA6f-1" source="gC3pRWRQBrtmoeh_WA6f-26" target="gC3pRWRQBrtmoeh_WA6f-43">
          <mxGeometry relative="1" as="geometry" />
        </mxCell>
        <mxCell id="c4jT5kLYIAUny72i_QD4-15" style="edgeStyle=orthogonalEdgeStyle;rounded=0;orthogonalLoop=1;jettySize=auto;html=1;entryX=0.5;entryY=0;entryDx=0;entryDy=0;entryPerimeter=0;" edge="1" parent="gC3pRWRQBrtmoeh_WA6f-1" source="c4jT5kLYIAUny72i_QD4-8" target="c4jT5kLYIAUny72i_QD4-10">
          <mxGeometry relative="1" as="geometry" />
        </mxCell>
        <mxCell id="c4jT5kLYIAUny72i_QD4-16" style="edgeStyle=orthogonalEdgeStyle;rounded=0;orthogonalLoop=1;jettySize=auto;html=1;entryX=0.5;entryY=0;entryDx=0;entryDy=0;entryPerimeter=0;" edge="1" parent="gC3pRWRQBrtmoeh_WA6f-1" source="gC3pRWRQBrtmoeh_WA6f-43" target="gC3pRWRQBrtmoeh_WA6f-30">
          <mxGeometry relative="1" as="geometry" />
        </mxCell>
        <mxCell id="c4jT5kLYIAUny72i_QD4-17" style="edgeStyle=orthogonalEdgeStyle;rounded=0;orthogonalLoop=1;jettySize=auto;html=1;entryX=0.5;entryY=0;entryDx=0;entryDy=0;entryPerimeter=0;" edge="1" parent="gC3pRWRQBrtmoeh_WA6f-1" source="c4jT5kLYIAUny72i_QD4-10" target="c4jT5kLYIAUny72i_QD4-11">
          <mxGeometry relative="1" as="geometry" />
        </mxCell>
        <mxCell id="c4jT5kLYIAUny72i_QD4-24" style="edgeStyle=orthogonalEdgeStyle;rounded=0;orthogonalLoop=1;jettySize=auto;html=1;" edge="1" parent="gC3pRWRQBrtmoeh_WA6f-1" source="gC3pRWRQBrtmoeh_WA6f-20">
          <mxGeometry relative="1" as="geometry">
            <mxPoint x="370" y="343" as="targetPoint" />
          </mxGeometry>
        </mxCell>
        <mxCell id="gC3pRWRQBrtmoeh_WA6f-20" value="&lt;font style=&quot;font-size: 10px;&quot;&gt;Route53&lt;/font&gt;" style="outlineConnect=0;dashed=0;verticalLabelPosition=bottom;verticalAlign=top;align=center;html=1;shape=mxgraph.aws3.route_53;fillColor=#F58536;gradientColor=none;fontSize=8;" vertex="1" parent="gC3pRWRQBrtmoeh_WA6f-1">
          <mxGeometry x="345" y="183" width="50" height="50" as="geometry" />
        </mxCell>
        <mxCell id="c4jT5kLYIAUny72i_QD4-22" value="" style="endArrow=none;html=1;rounded=0;" edge="1" parent="gC3pRWRQBrtmoeh_WA6f-1" source="gC3pRWRQBrtmoeh_WA6f-8" target="gC3pRWRQBrtmoeh_WA6f-6">
          <mxGeometry width="50" height="50" relative="1" as="geometry">
            <mxPoint x="275.0781798913764" y="92.99999999999994" as="sourcePoint" />
            <mxPoint x="411.84814383205025" y="92.00874009839072" as="targetPoint" />
            <Array as="points">
              <mxPoint x="319" y="149" />
              <mxPoint x="435" y="149" />
            </Array>
          </mxGeometry>
        </mxCell>
        <mxCell id="c4jT5kLYIAUny72i_QD4-23" value="" style="endArrow=classic;html=1;rounded=0;entryX=0.5;entryY=0;entryDx=0;entryDy=0;entryPerimeter=0;" edge="1" parent="gC3pRWRQBrtmoeh_WA6f-1" target="gC3pRWRQBrtmoeh_WA6f-20">
          <mxGeometry width="50" height="50" relative="1" as="geometry">
            <mxPoint x="370" y="153" as="sourcePoint" />
            <mxPoint x="320" y="123" as="targetPoint" />
          </mxGeometry>
        </mxCell>
        <mxCell id="c4jT5kLYIAUny72i_QD4-28" style="edgeStyle=orthogonalEdgeStyle;rounded=0;orthogonalLoop=1;jettySize=auto;html=1;entryX=0;entryY=0.5;entryDx=0;entryDy=0;entryPerimeter=0;" edge="1" parent="gC3pRWRQBrtmoeh_WA6f-1" source="c4jT5kLYIAUny72i_QD4-8" target="gC3pRWRQBrtmoeh_WA6f-34">
          <mxGeometry relative="1" as="geometry" />
        </mxCell>
        <mxCell id="-_DuIp1jHnHVtXz94Fdv-9" value="" style="endArrow=classic;html=1;rounded=0;dashed=1;" edge="1" parent="gC3pRWRQBrtmoeh_WA6f-1">
          <mxGeometry width="50" height="50" relative="1" as="geometry">
            <mxPoint x="151" y="558" as="sourcePoint" />
            <mxPoint x="171" y="558" as="targetPoint" />
          </mxGeometry>
        </mxCell>
        <mxCell id="-_DuIp1jHnHVtXz94Fdv-10" style="edgeStyle=orthogonalEdgeStyle;rounded=0;orthogonalLoop=1;jettySize=auto;html=1;dashed=1;" edge="1" parent="gC3pRWRQBrtmoeh_WA6f-1" source="-_DuIp1jHnHVtXz94Fdv-0">
          <mxGeometry relative="1" as="geometry">
            <mxPoint x="570" y="783" as="targetPoint" />
            <Array as="points">
              <mxPoint x="590" y="783" />
            </Array>
          </mxGeometry>
        </mxCell>
        <mxCell id="-_DuIp1jHnHVtXz94Fdv-11" value="" style="endArrow=classic;html=1;rounded=0;entryX=0.727;entryY=0.683;entryDx=0;entryDy=0;entryPerimeter=0;dashed=1;" edge="1" parent="gC3pRWRQBrtmoeh_WA6f-1">
          <mxGeometry width="50" height="50" relative="1" as="geometry">
            <mxPoint x="590" y="672" as="sourcePoint" />
            <mxPoint x="569.9399999999998" y="671.8" as="targetPoint" />
          </mxGeometry>
        </mxCell>
        <mxCell id="-_DuIp1jHnHVtXz94Fdv-12" value="" style="endArrow=classic;html=1;rounded=0;entryX=0.727;entryY=0.683;entryDx=0;entryDy=0;entryPerimeter=0;dashed=1;" edge="1" parent="gC3pRWRQBrtmoeh_WA6f-1">
          <mxGeometry width="50" height="50" relative="1" as="geometry">
            <mxPoint x="590" y="542" as="sourcePoint" />
            <mxPoint x="569.9399999999998" y="541.8" as="targetPoint" />
          </mxGeometry>
        </mxCell>
        <mxCell id="-_DuIp1jHnHVtXz94Fdv-3" value="" style="endArrow=classic;html=1;rounded=0;entryX=0.5;entryY=0;entryDx=0;entryDy=0;entryPerimeter=0;dashed=1;" edge="1" parent="gC3pRWRQBrtmoeh_WA6f-1" target="-_DuIp1jHnHVtXz94Fdv-0">
          <mxGeometry width="50" height="50" relative="1" as="geometry">
            <mxPoint x="400" y="383" as="sourcePoint" />
            <mxPoint x="640" y="553" as="targetPoint" />
            <Array as="points">
              <mxPoint x="590" y="383" />
            </Array>
          </mxGeometry>
        </mxCell>
        <mxCell id="d7GGjO82PSVsw8Ra-hS1-3" value="" style="endArrow=none;html=1;rounded=0;entryX=0.5;entryY=1;entryDx=0;entryDy=0;entryPerimeter=0;dashed=1;" edge="1" parent="gC3pRWRQBrtmoeh_WA6f-1" target="gC3pRWRQBrtmoeh_WA6f-19">
          <mxGeometry width="50" height="50" relative="1" as="geometry">
            <mxPoint x="400" y="383" as="sourcePoint" />
            <mxPoint x="400" y="383" as="targetPoint" />
          </mxGeometry>
        </mxCell>
      </root>
    </mxGraphModel>
  </diagram>
</mxfile>
